<?xml version="1.0" standalone="no"?><!DOCTYPE svg PUBLIC "-//W3C//DTD SVG 1.1//EN" "http://www.w3.org/Graphics/SVG/1.1/DTD/svg11.dtd"><svg t="1692170820147" class="icon" viewBox="0 0 2890 1024" version="1.1" xmlns="http://www.w3.org/2000/svg" p-id="18658" xmlns:xlink="http://www.w3.org/1999/xlink" width="564.453125" height="200"><path d="M628.590457 742.623513L0.987614 611.364386l265.345949-260.641787L126.165117 9.252386l279.697543 40.440203 222.727797 692.925726zM2484.655431 49.692589L2741.086863 0l-103.294051 389.525442 251.134701 250.245847-701.242477 177.094823 296.970395-767.168325z" fill="#d6ba03" p-id="18659"></path><path d="M2336.170234 420.905584l146.998578-361.066559 52.707411 222.036467-249.201055 188.525158 49.495066-49.495066zM405.857462 49.692589l49.495066 123.737665 72.906721 252.62132L358.296041 283.013848 405.857462 49.692589z" fill="#ffdd00" p-id="18660"></path><path d="M356.367594 281.178964c646.653401 178.976487 1372.596629 178.976487 2177.782903 0-3.716548 429.918863-1.387858 333.600487 0 552.071148-832.558782 251.581726-1558.50201 251.581726-2177.782903 0V281.178964z" fill="#ffdd00" p-id="18661"></path><path d="M1203.719797 699.859817h152.051005v123.139899h-152.051005v-123.139899z m125.915614 98.200041v-72.859939h-100.570315v72.859939h100.570315z m-296.570152-226.491127h60.182091V517.717766h27.320528v53.850965h59.397198v25.340101h-59.397198v58.601909h58.601909v26.135391h-50.680203v55.826193h51.080446v26.135391h-51.080446v68.899086c2.375472 1.185137 4.355898 1.975228 6.336325 2.770518 23.359675 7.921706 77.21064 12.277604 161.152649 12.277604a2844.557645 2844.557645 0 0 0 81.571736-1.585381l-4.756142 28.510863h-70.479269c-98.595086 0-160.362558-5.941279-184.912568-17.028548-21.384447-9.896934-40.783269-27.320528-57.416772-52.265584a427.387452 427.387452 0 0 1-22.16934 75.230213l-20.594355-18.608731c17.423594-45.929259 27.325726-97.799797 28.905908-154.821522l24.55001 2.770517c-0.790091 20.594355-2.375472 40.388223-4.750944 59.397198 10.29198 19.398822 22.174538 34.84199 35.63728 46.324305v-133.832122h-73.254985v-26.135391h64.938233v-58.601909h-60.182091v-25.340101z m215.003614-7.921706h-54.641056v-26.130193h167.884021c0 67.313706-3.955655 107.701929-11.482315 121.164671-7.121218 13.462741-19.799066 20.194112-38.012751 20.194111-7.916508 0-17.02335-0.795289-28.11062-1.58538l-7.126416-24.950254 28.900711 1.985624c12.277604-0.395046 19.804264-5.546234 22.969827-15.443167 3.170761-9.501888 5.14599-34.446944 5.541036-75.235412h-59.392c-5.14599 28.115817-11.87736 50.290355-20.589158 66.91866a162.644467 162.644467 0 0 1-48.704974 51.875736l-18.608731-23.364873c19.003777-12.67265 33.261807-26.530437 42.763695-41.578558 8.316751-13.857787 14.647878-31.676426 18.608731-53.850965z m508.413401 110.872691v77.605685h-197.585218v27.320528h215.798903v101.765848h-28.110619v-16.633503h-187.688284v16.233259h-28.505665v-206.291817h226.090883z m-197.585218 164.718457h187.688284v-36.822417h-187.688284v36.822417z m0-110.077401h169.869645v-31.676427h-169.869645v31.676427z m252.226274-102.55594v71.669605h-27.715574v-47.119594h-280.342091v47.119594h-27.715574v-71.669605h156.80195a260.714558 260.714558 0 0 0-12.277604-25.735147l27.720771-4.750944-2.375472-1.585381a231.174497 231.174497 0 0 0 41.178315-78.000731l27.320528 5.936082a433.676995 433.676995 0 0 1-8.711797 24.154964h114.433299v24.945056h-70.484467c8.316751 11.087269 15.048122 21.384447 19.804264 30.886335l-25.345299 9.501888a263.80735 263.80735 0 0 0-24.945056-40.388223h-24.945056a309.643046 309.643046 0 0 1-24.154964 38.012751l-21.379249-13.067695a313.354396 313.354396 0 0 1 12.667452 30.096243h150.465624z m-288.258599-55.036101c-9.501888 15.43797-19.799066 29.696-31.676426 42.763695l-24.945056-15.838213a234.558376 234.558376 0 0 0 52.265583-82.361827l27.320528 5.941279c-3.165563 8.711797-6.731371 16.633503-9.896934 24.55001h106.116549v24.945056h-66.518417c8.706599 11.87736 16.233259 23.359675 21.779493 34.051898l-26.135391 9.902132c-7.131614-15.048122-15.838213-29.701198-25.740345-43.95403h-22.569584z" fill="#000" p-id="18662"></path></svg>