<?xml version="1.0" standalone="no"?><!DOCTYPE svg PUBLIC "-//W3C//DTD SVG 1.1//EN" "http://www.w3.org/Graphics/SVG/1.1/DTD/svg11.dtd"><svg t="1692168874561" class="icon" viewBox="0 0 3529 1024" version="1.1" xmlns="http://www.w3.org/2000/svg" p-id="1513" xmlns:xlink="http://www.w3.org/1999/xlink" width="689.2578125" height="200"><path d="M1833.121144 473.632499l3.874354 16.091244-55.750196 82.157736 6.877531-45.376049 44.998311-52.872931z m0 0" fill="#FFB259" p-id="1514"></path><path d="M3022.544304 80.835657H1150.168056L1071.445682 0h-668.257088L63.669644 350.292953l668.263895 673.707047 135.529211-134.797559 2155.081554-0.738459c172.16627 2.206867 313.358129-169.266886 324.504765-374.63315 12.223696-225.098754-134.918367-434.099459-324.504765-432.995175zM176.840926 350.292953L446.298222 80.835657H1012.164839l269.458997 269.457296-549.690297 549.656267-555.092613-549.656267z m0 0" fill="#FFDA00" p-id="1515"></path><path d="M1961.034367 268.041634h84.556875c41.864118 0 78.103022-0.792907 108.718412-2.416154v43.487365a1637.165379 1637.165379 0 0 0-89.389182-2.414452H1741.18309c0 103.093198-0.83034 173.570021-2.416154 211.394738-1.623247 37.863852-6.455555 76.518909-14.496922 115.965173-8.078801 39.485398-20.950776 77.687851-38.656759 114.757095-14.495221-11.287862-31.406596-20.950776-50.734125-28.990443 24.159836-37.033512 39.864836-78.518192 47.111596-124.42171 7.24676-45.90522 11.248727-95.809005 12.079067-149.789623 0.792907-53.944887-0.41517-113.13555-3.624231-177.571989h212.604517c-3.246494-14.496923-10.494955-34.615657-21.743682-60.39874 16.081035-3.209061 32.994111-8.832573 50.734125-16.911375 11.25213 27.40633 20.915044 53.15198 28.993845 77.310115z m2.416154 128.045941h128.044239c25.74565 0 48.319672-0.792907 67.647201-2.414452v45.903518c-17.741715-1.585814-40.278304-2.416154-67.647201-2.416153h-128.044239v82.142422h159.452537c-1.623247 41.901551-2.416154 80.55831-2.416154 115.965172 0 35.445997 0.792907 73.272415 2.416154 113.549018h-50.734125v-43.487365H1830.573974v45.903519h-48.317971c1.585814-45.110612 2.416154-85.351483 2.416154-120.79748 0-37.03181-0.83034-74.061919-2.416154-111.132864h132.878248v-120.79748c0-27.367195-0.83034-53.150278-2.416153-77.310114h53.150278c-1.624948 25.77968-2.417855 50.732423-2.417855 74.892259z m108.718412 270.587103v-106.302259H1830.573974v106.302259h241.594959zM2386.241699 427.494171v-159.452537c0-14.496923-0.83034-35.408563-2.416153-62.814894h53.150278c-1.623247 30.615391-2.416154 50.734125-2.416154 60.39874v161.868691h292.330786c20.913342 0 43.487365-0.792907 67.647201-2.416154v48.319673c-30.613689-1.585814-58.812926-2.416154-84.558576-2.416154h-140.125008c11.248727 32.236936 28.575272 63.645234 51.942201 94.223191 23.329496 30.613689 51.111861 55.979901 83.350499 76.102038 32.199503 20.157869 61.191647 34.23792 86.973029 42.279288-20.950776 12.911109-37.069244 28.992144-48.317971 48.317971-33.824451-17.741715-65.231047-38.655057-94.223191-62.813192-28.990442-24.159836-54.771824-53.529717-77.310115-88.182807-22.575724-34.615657-39.485398-71.26973-50.734125-109.924788h-86.97473v190.860835c46.696425-28.992144 78.103022-50.734125 94.223192-65.231047 11.248727 17.741715 22.534888 33.82275 33.822749 48.317971-30.613689 14.496923-61.22908 32.614673-91.805336 54.358355-30.615391 21.743682-53.150278 39.863134-67.647201 54.358355-12.911109-17.741715-24.991878-33.029843-36.240605-45.903518 12.871974-12.871974 19.327529-29.785051 19.327529-50.734125V470.981536h-55.566432c-22.574023 0-48.317971 0.83034-77.311817 2.416154v-48.319673c28.992144 1.623247 53.150278 2.416154 72.479509 2.416154h60.400441z m225.891662-109.924788c-34.65309 34.654791-68.855278 68.062371-102.678028 100.261874-14.496923-19.327529-26.57599-32.199503-36.238904-38.655057 27.367195-19.327529 57.982586-46.696425 91.805336-82.142422 33.82275-35.408563 59.5684-66.023954 77.311816-91.807038 12.871974 11.286161 28.990442 24.159836 48.317971 38.655058-17.743417 14.496923-43.902535 39.070227-78.518191 73.687585z" fill="#000" p-id="1516"></path><path d="M920.257412 192.01106c-1.927818-6.047191-8.800245-16.217156-21.986999-17.04069-11.272548-0.552993-346.311404 0-360.602444 0-5.774948 0-16.489399 4.121074-21.714756 18.68946l-0.544486 1.369721v32.985603H920.801897V193.380781l-0.544485-1.369721z m0 0" fill="#FFDA00" p-id="1517"></path><path d="M538.219261 192.01106c97.292727-0.272243 350.427373-0.551291 359.227617 0 3.568081 0.272243 5.495899 2.746248 6.319434 4.121073v14.570088h-371.04295V197.780903c1.921012-4.672365 4.665559-5.497601 5.495899-5.769843z m-5.774948 47.271538l-69.256836 76.408311s3.295838 54.972603 54.965797 50.300238c0 0 39.852925 0 48.374121-46.451407 0 0 8.521196 49.748947 51.669959 46.723649 0 0 42.599173 2.200061 48.925412-49.469897 0 0 11.818735 51.118667 52.216146 49.469897 0 0 41.779042 2.200061 51.125473-49.469897 0 0 9.072487 48.646364 49.748947 49.469897 0 0 48.918606-1.647068 51.118667-48.92371l3.295838 0.551291s8.521196 47.276643 50.30194 48.100177c0 0 51.669959-2.472304 50.293432-52.221251l-71.456897-75.312534c0.546187 0.825236-371.321999 0.825236-371.321999 0.825236z m0 0" fill="#FFDA00" p-id="1518"></path><path d="M921.080946 393.747989l-8.242147-0.272242c-0.83034 0-17.591982-0.825236-29.138474-16.491101l-15.386816-21.161763v131.09676l-298.762519 0.551292 1.64877-138.799527-16.489399 29.131668s-8.521196 14.023901-30.235953 15.665865l-7.69596 0.551291v229.498877c0.279049 7.423718 6.327941 18.68946 21.161764 18.68946H900.470474c2.472304 0 9.889215-0.551291 15.386816-5.768142 2.472304-2.47911 5.495899-6.872426 5.495899-14.025603V401.995241l-0.272243-8.247252z m-35.731852 110.212344v-102.516383c6.872426 4.400122 13.744852 6.593377 18.691162 7.697661v213.007777c0 0.546187 0 1.369721-0.552993 1.921012-0.544485 0.551291-2.472304 1.104284-3.295838 1.104285h-362.523456c-2.751353 0-3.848831-0.832042-4.121073-2.200062V409.413854c7.969904-1.64877 14.570088-4.400122 19.786938-7.697662l-1.102583 102.52319 333.117843-0.279049z m0 0" fill="#FFDA00" p-id="1519"></path><path d="M524.338287 406.303481v221.251626s0.544485 10.440507 12.640568 10.440506h362.251213s12.640568 0.552993 12.640568-11.265742V406.303481s-21.440812-0.551291-35.731852-20.064285v113.508182l-315.796403 0.28075 1.36802-114.062876c-0.272243 0.273944-10.168264 18.13987-37.372114 20.338229z m0 0" fill="#FFDA00" p-id="1520"></path></svg>