<?xml version="1.0" standalone="no"?><!DOCTYPE svg PUBLIC "-//W3C//DTD SVG 1.1//EN" "http://www.w3.org/Graphics/SVG/1.1/DTD/svg11.dtd"><svg t="1692170637177" class="icon" viewBox="0 0 3072 1024" version="1.1" xmlns="http://www.w3.org/2000/svg" p-id="16715" xmlns:xlink="http://www.w3.org/1999/xlink" width="600" height="200"><path d="M427.045926 227.555556H1934.222222c209.464889 0 379.259259 169.79437 379.259259 379.259259v37.925926c0 209.464889-169.79437 379.259259-379.259259 379.259259H367.350519A335.796148 335.796148 0 0 1 37.432889 625.777778l16.952889-89.505185A379.259259 379.259259 0 0 1 427.008 227.555556z" fill="#ffda00" p-id="16716"></path><path d="M2272.635259 0h390.712889c209.464889 0 379.259259 169.79437 379.259259 379.259259a379.259259 379.259259 0 0 1-5.006222 61.44l-43.538963 265.481482A379.259259 379.259259 0 0 1 2619.809185 1024H1782.518519l115.863703-706.180741A379.259259 379.259259 0 0 1 2272.635259 0z" fill="#ffda00" p-id="16717"></path><path d="M603.591111 640.682667v-36.02963h-62.198518c12.705185-17.066667 22.755556-33.640296 30.151111-49.872593l-29.013334-14.563555a233.320296 233.320296 0 0 1-30.909629 50.213926l25.562074 14.184296h-48.848593v-70.087111h100.769185v-36.02963h-80.933926c7.130074-10.846815 12.970667-20.973037 17.559704-30.416592L491.026963 455.111111a331.169185 331.169185 0 0 1-22.528 43.349333H395.188148a470.622815 470.622815 0 0 0-18.318222-39.708444l-38.153482 6.485333c6.599111 10.543407 12.47763 21.617778 17.559704 33.223111H279.969185v36.067556h100.389926v70.087111H331.851852l26.320592-12.136296a452.835556 452.835556 0 0 0-24.803555-51.465482l-31.668148 10.922667c8.647111 14.336 16.914963 31.857778 24.803555 52.717037H265.481481v36.02963h338.10963z m-149.959111-36.02963h-38.570667v-70.125037h38.570667v70.087111z m-105.737481 226.872889v-17.445926h172.487111v17.445926h34.740148v-168.542815h-241.967408v168.542815h34.740149z m172.487111-107.785482H347.894519v-29.165037h172.487111v29.202963z m0 58.368H347.894519v-27.951407h172.487111v27.951407z m196.152889-229.338074l25.562074-26.737777a471.684741 471.684741 0 0 0-65.232593-64.018963l-24.803556 25.106963c27.45837 23.248593 48.96237 45.131852 64.474075 65.611851z m81.275259 217.163852v-67.242666h53.854815v66.446222h33.147259v-66.446222h54.992592v20.669629c0 8.912593-4.361481 13.349926-13.008592 13.349926l-27.079111-1.630815 7.623111 32.009482h29.392592c24.917333 0 37.394963-11.984593 37.394963-36.02963v-179.920592h-76.686222l-2.275555-2.010075a417.185185 417.185185 0 0 0 70.921481-51.882666v-27.154963H756.622222v32.009481h73.652148l-21.390222 21.88326c13.729185 7.850667 27.875556 16.877037 42.363259 27.154963h-87.760592v218.832592h34.322963z m75.207111-239.047111c-9.178074-7.016296-22.755556-16.611556-40.846222-28.785778h85.485037a295.670519 295.670519 0 0 1-44.638815 28.785778z m66.74963 80.630519H884.811852v-28.368593h54.992592v28.368593z m-88.139852 0h-53.816889v-28.368593h53.854815v28.368593z m-180.527408 222.056296c19.607704-36.484741 33.374815-54.727111 41.263408-54.727111 4.323556 0 9.140148 3.413333 14.487703 10.126222 11.681185 14.032593 25.031111 23.514074 40.049778 28.368593 16.535704 4.323556 36.901926 6.637037 61.060741 6.902518 28.747852 0.455111 49.834667 0.758519 63.336296 0.796445h91.970371l8.798814-38.07763c-12.743111 1.061926-27.496296 1.744593-44.259555 2.010074-25.448296 0.568889-44.373333 0.83437-56.888889 0.83437h-7.585185c-20.517926-0.075852-43.690667-0.341333-69.480297-0.83437-21.883259-0.758519-38.798222-4.171852-50.744888-10.126222a102.779259 102.779259 0 0 1-27.496297-24.272593 31.478519 31.478519 0 0 0-5.688889-6.106074v-153.144889h-85.105777v35.650371h51.124148v114.650074c-15.284148 8.116148-32.426667 28.634074-51.541334 61.591703l26.737778 26.358519z m180.527408-162.095407h-53.816889v-28.368593h53.854815v28.368593z m88.139852 0H884.811852v-28.368593h54.992592v28.368593z m97.317925-44.145778a695.371852 695.371852 0 0 0 66.408297-43.766519v32.009482h189.629629v-30.416593a482.038519 482.038519 0 0 0 63.753482 41.718519l19.835259-37.24326c-62.046815-32.161185-117.266963-76.306963-165.622518-132.513185h-26.699852c-43.994074 52.717037-99.593481 96.976593-166.760297 132.930371l19.456 37.281185z m248.414815-48.241778h-176.279703c34.095407-26.168889 63.601778-55.371852 88.519111-87.495111 25.448296 32.123259 54.689185 61.288296 87.798518 87.495111z m29.392593 252.434963l30.151111-22.679704c-19.342222-30.264889-46.155852-65.118815-80.516741-104.523852l-28.216889 19.038815c14.487704 16.990815 27.079111 32.95763 37.774223 47.786667-51.38963 6.485333-104.296296 11.377778-158.757926 14.601481 22.641778-25.41037 42.477037-54.689185 59.543703-87.912296h177.796741v-37.281185h-309.096296v37.281185h89.315555c-14.260148 28.065185-31.819852 54.954667-52.679111 80.630519-4.058074 4.551111-10.277926 8.078222-18.697481 10.505481l9.936592 33.223111c89.543111-5.688889 163.84-13.349926 222.852741-23.058963 6.068148 9.178074 12.970667 19.986963 20.593778 32.388741z m370.915555-253.231407v-108.999112h-212.916148v108.999112h212.916148z m-36.598518-34.853926h-140.439704v-38.494815h140.439704v38.494815z m-159.137185 218.415407v-124.017778h180.110222v117.532445h37.015704V603.022222h-253.383111v158.833778h36.257185z m-63.715556 71.68c73.500444-7.281778 119.921778-23.627852 139.264-49.000296 18.318222-20.252444 30.151111-60.795259 35.498667-121.552593l-36.636445-3.640889c-3.034074 48.621037-13.12237 82.792296-30.151111 102.513778-19.835259 21.048889-60.567704 33.223111-122.121481 36.446815l14.108444 35.271111z m298.401185 0.83437l19.83526-32.009481c-39.670519-19.721481-84.461037-37.015704-134.33363-51.882667l-19.076741 29.999408c45.018074 12.705185 89.543111 30.644148 133.575111 53.89274zM2212.522667 758.518519l189.326222-377.249186h-135.623111l-135.623111 261.954371-53.703111-261.954371H1934.222222l13.425778 18.659556L2022.513778 758.518519h190.008889z m603.249777 0c13.653333 0 25.637926-4.323556 36.02963-13.008593 10.353778-8.647111 16.687407-19.418074 19.038815-32.312889L2920.296296 379.259259h-353.848889c-13.691259 0-25.78963 4.323556-36.408888 13.008593-10.619259 8.647111-16.839111 19.418074-18.735408 32.312889L2461.88563 758.518519h353.848889z m-76.989629-63.336297h-133.499259l38.115555-253.269333h133.499259l-38.153481 253.269333z" fill="#000" p-id="16718"></path></svg>