<?xml version="1.0" standalone="no"?><!DOCTYPE svg PUBLIC "-//W3C//DTD SVG 1.1//EN" "http://www.w3.org/Graphics/SVG/1.1/DTD/svg11.dtd"><svg t="1692168475657" class="icon" viewBox="0 0 3465 1024" version="1.1" xmlns="http://www.w3.org/2000/svg" p-id="9501" xmlns:xlink="http://www.w3.org/1999/xlink" width="676.7578125" height="200"><path d="M2953.846154 1024H512C228.430769 1024 0 795.569231 0 512S228.430769 0 512 0h2441.846154c283.569231 0 512 228.430769 512 512s-228.430769 512-512 512z" fill="#FFDA00" p-id="9502"></path><path d="M1027.938462 437.169231l-23.63077-31.507693c94.523077-43.323077 173.292308-98.461538 236.307693-165.415384h31.507692c51.2 66.953846 129.969231 118.153846 232.369231 161.476923l-23.63077 31.507692c-27.569231-11.815385-55.138462-27.569231-82.707692-39.384615v31.507692h-126.030769v78.769231h196.923077v35.446154h-196.923077v145.723077h59.076923c19.692308-35.446154 35.446154-74.830769 51.2-114.215385l35.446154 11.815385c-11.815385 39.384615-27.569231 74.830769-47.261539 102.4h114.215385v39.384615h-472.615385v-39.384615h114.215385c-11.815385-35.446154-27.569231-66.953846-43.323077-98.461539l35.446154-11.815384c15.753846 31.507692 31.507692 66.953846 47.261538 110.276923h63.015385v-145.723077h-196.923077v-35.446154h196.923077v-78.769231H1102.769231V393.846154c-19.692308 15.753846-47.261538 27.569231-74.830769 43.323077zM1256.369231 275.692308c-39.384615 43.323077-86.646154 78.769231-137.846154 110.276923h275.692308C1335.138462 354.461538 1291.815385 319.015385 1256.369231 275.692308zM1721.107692 240.246154v145.723077h31.507693v35.446154h-126.03077v78.76923h102.4v228.43077h-39.384615v-192.984616h-66.953846c-7.876923 90.584615-23.630769 157.538462-47.261539 204.8l-27.56923-23.630769c27.569231-55.138462 39.384615-145.723077 39.384615-267.815385v-196.923077h39.384615v137.846154h59.076923V240.246154h35.446154z m141.784616 43.323077c7.876923-19.692308 11.815385-35.446154 19.692307-55.138462l39.384616 3.938462c-3.938462 15.753846-7.876923 31.507692-15.753846 47.261538h122.092307V512h-126.030769l-7.876923 11.815385c-15.753846 27.569231-43.323077 51.2-78.769231 66.953846h106.338462v-59.076923h39.384615V590.769231h94.523077v39.384615h-94.523077v106.338462h-39.384615V630.153846h-169.353846v-39.384615h55.138461l-15.753846-23.630769c31.507692-15.753846 55.138462-31.507692 66.953846-55.138462h-82.707692V283.569231h86.646154z m23.630769 98.461538V319.015385h-70.892308v63.015384h70.892308z m0 35.446154h-70.892308v66.953846h59.076923c7.876923-23.630769 7.876923-43.323077 11.815385-66.953846z m106.338461 0h-70.892307c0 23.630769-3.938462 47.261538-7.876923 66.953846h78.76923v-66.953846z m-70.892307-35.446154h70.892307V319.015385h-70.892307v63.015384zM2579.692308 740.430769h-39.384616v-23.630769h-370.215384v23.630769h-39.384616V259.938462h445.046154l3.938462 480.492307z m-39.384616-59.076923V295.384615h-370.215384v385.969231h370.215384z m-141.784615-291.446154V322.953846h39.384615v66.953846h66.953846v35.446154h-66.953846V590.769231c0 31.507692-15.753846 47.261538-47.261538 47.261538h-63.015385l-7.876923-35.446154c19.692308 0 39.384615 3.938462 59.076923 3.938462 15.753846 0 23.630769-7.876923 23.630769-23.630769V433.230769c-43.323077 74.830769-102.4 129.969231-173.292307 173.292308l-23.630769-35.446154c70.892308-35.446154 122.092308-82.707692 165.415384-145.723077h-153.6v-35.446154h181.169231zM2780.553846 448.984615V236.307692h39.384616v212.676923h334.76923v39.384616h-181.16923c23.630769 86.646154 86.646154 157.538462 189.046153 204.8l-23.630769 35.446154c-110.276923-59.076923-177.230769-141.784615-204.8-244.184616h-114.215384v200.861539c43.323077-7.876923 82.707692-23.630769 122.092307-39.384616l11.815385 39.384616c-55.138462 19.692308-110.276923 35.446154-173.292308 47.261538l-11.815384-35.446154c7.876923-3.938462 11.815385-11.815385 11.815384-19.692307v-192.984616h-114.215384v-39.384615l114.215384 3.938461z m315.076923-181.16923c-43.323077 51.2-110.276923 94.523077-200.861538 133.907692l-23.630769-31.507692c86.646154-39.384615 153.6-82.707692 196.923076-129.969231l27.569231 27.569231z" p-id="9503"></path><path d="M638.030769 563.2c7.876923-3.938462 15.753846-11.815385 19.692308-19.692308l15.753846-82.707692c0-3.938462-3.938462-11.815385-7.876923-11.815385s-3.938462 0-7.876923 3.938462l-31.507692 35.446154-47.261539-70.892308c-7.876923-11.815385-23.630769-19.692308-39.384615-11.815385-3.938462 3.938462-7.876923 3.938462-11.815385 11.815385l-47.261538 74.830769-35.446154-35.446154c-3.938462-3.938462-11.815385-3.938462-11.815385 0v7.876924l15.753846 82.707692c3.938462 11.815385 11.815385 19.692308 19.692308 19.692308 3.938462 3.938462 7.876923 3.938462 11.815385 3.938461h137.846154c11.815385 0 15.753846-3.938462 19.692307-7.876923z m173.292308-47.261538c-3.938462 3.938462-3.938462 3.938462-3.938462 7.876923l-208.738461 244.184615c-19.692308 23.630769-55.138462 27.569231-78.769231 3.938462l-7.876923-3.938462-208.738462-244.184615c-3.938462-3.938462-3.938462-7.876923-7.876923-11.815385-7.876923-7.876923-11.815385-19.692308-11.815384-31.507692 0-7.876923 3.938462-11.815385 3.938461-19.692308l74.83077-189.046154c7.876923-19.692308 27.569231-35.446154 55.138461-35.446154h275.692308c23.630769 0 43.323077 11.815385 51.2 35.446154l74.830769 189.046154c7.876923 19.692308 7.876923 43.323077-7.876923 55.138462zM551.384615 370.215385c15.753846 0 31.507692-11.815385 31.507693-27.569231s-11.815385-31.507692-31.507693-31.507692-31.507692 11.815385-31.507692 31.507692 15.753846 27.569231 31.507692 27.569231z" fill="#2C2C2C" p-id="9504"></path></svg>